<?xml version="1.0" encoding="utf-8"?>
<!-- Generator: Adobe Illustrator 16.0.0, SVG Export Plug-In . SVG Version: 6.00 Build 0)  -->
<!DOCTYPE svg PUBLIC "-//W3C//DTD SVG 1.1//EN" "http://www.w3.org/Graphics/SVG/1.1/DTD/svg11.dtd">
<svg version="1.1" id="Design" xmlns="http://www.w3.org/2000/svg" xmlns:xlink="http://www.w3.org/1999/xlink" x="0px" y="0px"
	 width="2000px" height="350px" viewBox="0 0 2000 350" enable-background="new 0 0 2000 350" xml:space="preserve">
<g>
	<rect x="226.494" y="210.652" fill="#333333" width="5.565" height="5.568"/>
	<rect x="226.46" y="217.822" fill="#333333" width="5.564" height="5.566"/>
	<rect x="226.511" y="203.488" fill="#333333" width="5.566" height="5.562"/>
	<path fill="#333333" d="M226.419,174.862v5.43h5.567v-5.565h-5.126C226.71,174.772,226.567,174.817,226.419,174.862z"/>
	<path fill="#333333" d="M231.964,173.105v-0.341c-0.248,0.114-0.506,0.227-0.766,0.341H231.964z"/>
	<rect x="226.511" y="196.314" fill="#333333" width="5.566" height="5.566"/>
	<rect x="218.832" y="217.818" fill="#333333" width="5.565" height="5.566"/>
	<path fill="#333333" d="M218.787,180.227h5.563v-4.866c-1.662,0.432-3.521,0.829-5.563,1.194V180.227z"/>
	<rect x="218.931" y="203.484" fill="#333333" width="5.562" height="5.562"/>
	<rect x="226.47" y="181.941" fill="#333333" width="5.566" height="5.564"/>
	<rect x="226.497" y="189.133" fill="#333333" width="5.566" height="5.567"/>
	<rect x="234.039" y="174.773" fill="#333333" width="5.565" height="5.569"/>
	<rect x="218.9" y="210.65" fill="#333333" width="5.558" height="5.568"/>
	<rect x="211.269" y="210.65" fill="#333333" width="5.567" height="5.564"/>
	<path fill="#333333" d="M218.763,226.264c2.033,0.162,3.879,0.371,5.562,0.621v-1.902h-5.562V226.264z"/>
	<rect x="211.173" y="217.818" fill="#333333" width="5.564" height="5.566"/>
	<rect x="211.323" y="203.477" fill="#333333" width="5.562" height="5.566"/>
	<rect x="211.329" y="196.288" fill="#333333" width="5.566" height="5.565"/>
	<rect x="234.08" y="189.146" fill="#333333" width="5.569" height="5.564"/>
	<rect x="234.066" y="181.967" fill="#333333" width="5.567" height="5.565"/>
	<rect x="234.091" y="196.318" fill="#333333" width="5.565" height="5.568"/>
	<rect x="234.066" y="217.822" fill="#333333" width="5.562" height="5.566"/>
	<rect x="234.091" y="203.488" fill="#333333" width="5.565" height="5.564"/>
	<rect x="234.08" y="210.652" fill="#333333" width="5.57" height="5.568"/>
	<rect x="218.907" y="189.111" fill="#333333" width="5.566" height="5.566"/>
	<rect x="241.607" y="167.609" fill="#333333" width="5.569" height="5.567"/>
	<path fill="#333333" d="M238.7,125.188v-1.322h-1.084C237.991,124.285,238.354,124.73,238.7,125.188z"/>
	<path fill="#333333" d="M245.084,147.731c0,1.319-0.055,2.577-0.149,3.795h2.086v-5.565h-1.993
		C245.044,146.556,245.084,147.116,245.084,147.731z"/>
	<path fill="#333333" d="M243.872,136.981h2.891v-5.565h-4.406C242.99,133.104,243.479,134.981,243.872,136.981z"/>
	<path fill="#333333" d="M243.802,158.756h3.287v-5.564h-2.258C244.606,155.175,244.284,157.053,243.802,158.756z"/>
	<path fill="#333333" d="M241.567,164.257v1.709h5.568v-5.565h-3.845C242.804,161.777,242.243,163.078,241.567,164.257z"/>
	<path fill="#333333" d="M244.871,144.271h2.043v-5.565h-2.581C244.606,140.45,244.771,142.315,244.871,144.271z"/>
	<rect x="231.528" y="87.584" fill="#333333" width="5.568" height="5.567"/>
	<rect x="218.931" y="196.303" fill="#333333" width="5.565" height="5.567"/>
	<rect x="231.865" y="94.705" fill="#333333" width="5.565" height="5.565"/>
	<rect x="231.202" y="80.571" fill="#333333" width="5.564" height="5.563"/>
	<rect x="230.896" y="73.673" fill="#333333" width="5.566" height="5.567"/>
	<rect x="230.625" y="66.91" fill="#333333" width="5.567" height="5.567"/>
	<path fill="#333333" d="M234.03,229.17c1.234,0.422,2.395,0.883,3.495,1.377h2.069v-5.564h-5.564V229.17L234.03,229.17z"/>
	<path fill="#333333" d="M226.408,227.184c1.958,0.363,3.802,0.824,5.565,1.346v-3.547h-5.565V227.184z"/>
	<rect x="241.63" y="224.982" fill="#333333" width="5.571" height="5.564"/>
	<rect x="241.648" y="217.822" fill="#333333" width="5.569" height="5.566"/>
	<rect x="218.862" y="181.898" fill="#333333" width="5.562" height="5.564"/>
	<rect x="241.636" y="174.802" fill="#333333" width="5.568" height="5.567"/>
	<rect x="211.228" y="181.838" fill="#333333" width="5.563" height="5.564"/>
	<rect x="241.648" y="181.982" fill="#333333" width="5.569" height="5.563"/>
	<rect x="241.655" y="189.152" fill="#333333" width="5.57" height="5.566"/>
	<rect x="241.655" y="210.652" fill="#333333" width="5.57" height="5.568"/>
	<rect x="241.656" y="203.488" fill="#333333" width="5.571" height="5.564"/>
	<rect x="241.656" y="196.321" fill="#333333" width="5.571" height="5.567"/>
	<rect x="149.877" y="332.314" fill="#333333" width="5.561" height="5.568"/>
	<rect x="176.406" y="339.537" fill="#333333" width="5.563" height="5.57"/>
	<rect x="178.146" y="325.217" fill="#333333" width="5.562" height="5.562"/>
	<rect x="180.986" y="310.896" fill="#333333" width="5.563" height="5.568"/>
	<rect x="211.298" y="189.075" fill="#333333" width="5.566" height="5.565"/>
	<path fill="#333333" d="M255.813,73.061h5.566v-0.689c-1.781-0.791-3.664-1.476-5.566-2.14V73.061z"/>
	<rect x="177.106" y="332.375" fill="#333333" width="5.562" height="5.564"/>
	<rect x="148.658" y="339.473" fill="#333333" width="5.563" height="5.57"/>
	<rect x="182.634" y="303.74" fill="#333333" width="5.565" height="5.564"/>
	<rect x="153.902" y="318.002" fill="#333333" width="5.563" height="5.562"/>
	<rect x="151.661" y="325.158" fill="#333333" width="5.564" height="5.566"/>
	<rect x="232.199" y="101.909" fill="#333333" width="5.565" height="5.566"/>
	<rect x="255.89" y="74.514" fill="#333333" width="5.564" height="5.567"/>
	<rect x="256.733" y="146.102" fill="#333333" width="5.562" height="5.566"/>
	<rect x="156.455" y="310.852" fill="#333333" width="5.565" height="5.568"/>
	<rect x="256.699" y="138.903" fill="#333333" width="5.562" height="5.566"/>
	<rect x="255.995" y="81.548" fill="#333333" width="5.564" height="5.562"/>
	<rect x="256.763" y="153.296" fill="#333333" width="5.562" height="5.562"/>
	<rect x="256.581" y="124.485" fill="#333333" width="5.562" height="5.568"/>
	<rect x="256.779" y="160.476" fill="#333333" width="5.562" height="5.564"/>
	<rect x="256.646" y="131.697" fill="#333333" width="5.564" height="5.565"/>
	<rect x="256.505" y="117.28" fill="#333333" width="5.565" height="5.568"/>
	<rect x="256.104" y="88.627" fill="#333333" width="5.561" height="5.566"/>
	<rect x="256.211" y="95.749" fill="#333333" width="5.56" height="5.564"/>
	<rect x="256.414" y="110.084" fill="#333333" width="5.567" height="5.562"/>
	<rect x="256.316" y="102.903" fill="#333333" width="5.565" height="5.566"/>
	<rect x="179.46" y="318.055" fill="#333333" width="5.565" height="5.564"/>
	<path fill="#333333" d="M235.272,170.978c-0.389,0.258-0.823,0.515-1.283,0.777v1.371h5.566v-5.565h-0.386
		C238.032,168.85,236.748,170.005,235.272,170.978z"/>
	<rect x="203.575" y="181.755" fill="#333333" width="5.566" height="5.568"/>
	<rect x="240.392" y="102.362" fill="#333333" width="5.569" height="5.563"/>
	<rect x="203.677" y="189.027" fill="#333333" width="5.566" height="5.566"/>
	<rect x="240.617" y="109.589" fill="#333333" width="5.571" height="5.562"/>
	<rect x="240.824" y="116.847" fill="#333333" width="5.571" height="5.565"/>
	<path fill="#333333" d="M241.009,128.599c0.182,0.341,0.312,0.73,0.479,1.089h5.1v-5.568h-5.574v4.479H241.009z"/>
	<path fill="#333333" d="M211.072,225.877c1.962,0.051,3.817,0.127,5.567,0.234v-1.131h-5.567V225.877z"/>
	<rect x="203.716" y="196.26" fill="#333333" width="5.57" height="5.563"/>
	<rect x="203.476" y="217.818" fill="#333333" width="5.569" height="5.566"/>
	<rect x="159.193" y="303.699" fill="#333333" width="5.565" height="5.562"/>
	<rect x="203.699" y="203.462" fill="#333333" width="5.569" height="5.563"/>
	<rect x="203.625" y="210.646" fill="#333333" width="5.567" height="5.562"/>
	<rect x="191.972" y="64.407" fill="#333333" width="5.568" height="5.569"/>
	<rect x="193.849" y="76.989" fill="#333333" width="5.567" height="5.56"/>
	<rect x="194.913" y="83.832" fill="#333333" width="5.57" height="5.565"/>
	<rect x="240.158" y="95.182" fill="#333333" width="5.569" height="5.564"/>
	<polygon fill="#333333" points="165.705,296.549 161.989,296.549 161.989,302.107 167.554,302.107 167.554,298.213 
		165.705,298.213 	"/>
	<rect x="192.854" y="70.501" fill="#333333" width="5.565" height="5.567"/>
	<rect x="239.916" y="88.062" fill="#333333" width="5.573" height="5.565"/>
	<rect x="239.47" y="74.068" fill="#333333" width="5.57" height="5.566"/>
	<rect x="197.089" y="98.366" fill="#333333" width="5.564" height="5.564"/>
	<rect x="196" y="90.98" fill="#333333" width="5.571" height="5.563"/>
	<rect x="239.685" y="81.022" fill="#333333" width="5.57" height="5.562"/>
	<rect x="202.382" y="65.248" fill="#333333" width="5.566" height="5.568"/>
	<rect x="180.679" y="203.381" fill="#333333" width="5.562" height="5.562"/>
	<rect x="180.734" y="196.114" fill="#333333" width="5.562" height="5.567"/>
	<rect x="180.483" y="210.605" fill="#333333" width="5.562" height="5.564"/>
	<rect x="180.472" y="181.383" fill="#333333" width="5.562" height="5.565"/>
	<rect x="180.14" y="217.799" fill="#333333" width="5.563" height="5.564"/>
	<rect x="180.664" y="188.785" fill="#333333" width="5.567" height="5.566"/>
	<rect x="175.357" y="253.621" fill="#333333" width="3.716" height="5.566"/>
	<rect x="173.664" y="260.779" fill="#333333" width="3.718" height="5.564"/>
	<rect x="176.776" y="246.463" fill="#333333" width="3.717" height="5.562"/>
	<polygon fill="#333333" points="179.628,230.539 183.347,230.539 183.347,225.797 185.19,225.797 185.19,224.971 179.628,224.971 	
		"/>
	<rect x="178.867" y="232.139" fill="#333333" width="3.717" height="5.566"/>
	<rect x="177.942" y="239.301" fill="#333333" width="3.714" height="5.564"/>
	<polygon fill="#333333" points="183.863,173.882 180.149,173.882 180.149,179.447 185.71,179.447 185.71,177.587 183.863,177.587 	
		"/>
	<polygon fill="#333333" points="169.735,107.007 173.452,107.007 173.452,105.842 175.298,105.842 175.298,101.443 
		169.735,101.443 	"/>
	<rect x="171.45" y="109.46" fill="#333333" width="3.716" height="5.567"/>
	<rect x="167.623" y="93.413" fill="#333333" width="5.562" height="5.565"/>
	<rect x="163.085" y="78.399" fill="#333333" width="5.566" height="5.567"/>
	<rect x="165.386" y="85.694" fill="#333333" width="5.564" height="5.564"/>
	<rect x="173.241" y="117.788" fill="#333333" width="3.718" height="5.567"/>
	<rect x="179.05" y="158.47" fill="#333333" width="3.713" height="5.562"/>
	<rect x="179.658" y="166.225" fill="#333333" width="3.72" height="5.566"/>
	<rect x="174.814" y="126.116" fill="#333333" width="3.716" height="5.564"/>
	<rect x="178.278" y="150.578" fill="#333333" width="3.717" height="5.564"/>
	<rect x="176.175" y="134.381" fill="#333333" width="3.717" height="5.567"/>
	<rect x="177.324" y="142.54" fill="#333333" width="3.715" height="5.566"/>
	<rect x="210.695" y="339.594" fill="#333333" width="5.565" height="5.566"/>
	<rect x="201.058" y="325.256" fill="#333333" width="5.562" height="5.561"/>
	<rect x="200.47" y="332.418" fill="#333333" width="5.565" height="5.564"/>
	<rect x="201.804" y="318.09" fill="#333333" width="5.565" height="5.568"/>
	<rect x="202.673" y="310.93" fill="#333333" width="5.566" height="5.564"/>
	<rect x="200.075" y="339.58" fill="#333333" width="5.564" height="5.568"/>
	<rect x="195.545" y="224.979" fill="#333333" width="5.562" height="0.822"/>
	<path fill="#333333" d="M203.336,225.805h2.542c1.062,0,2.02,0.029,3.027,0.043v-0.865h-5.57L203.336,225.805L203.336,225.805z"/>
	<rect x="210.986" y="332.434" fill="#333333" width="5.565" height="5.566"/>
	<rect x="171.7" y="267.934" fill="#333333" width="3.716" height="5.562"/>
	<path fill="#333333" d="M204.543,302.172h5.565v-4.607c-1.733,0.127-3.605,0.232-5.565,0.32V302.172z"/>
	<rect x="203.623" y="303.77" fill="#333333" width="5.563" height="5.566"/>
	<rect x="160.81" y="71.662" fill="#333333" width="5.562" height="5.562"/>
	<rect x="211.42" y="325.268" fill="#333333" width="5.565" height="5.564"/>
	<rect x="163.109" y="339.506" fill="#333333" width="5.565" height="5.57"/>
	<rect x="164.036" y="332.348" fill="#333333" width="5.562" height="5.566"/>
	<rect x="164.302" y="289.393" fill="#333333" width="3.715" height="5.564"/>
	<rect x="169.464" y="275.086" fill="#333333" width="3.717" height="5.564"/>
	<rect x="166.983" y="282.242" fill="#333333" width="3.717" height="5.564"/>
	<rect x="171.242" y="303.721" fill="#333333" width="5.562" height="5.564"/>
	<path fill="#333333" d="M173.183,298.229v3.898h5.562v-3.902c-0.408,0-0.796,0.004-1.213,0.004H173.183L173.183,298.229z"/>
	<rect x="187.705" y="224.977" fill="#333333" width="5.565" height="0.822"/>
	<rect x="165.402" y="325.191" fill="#333333" width="5.565" height="5.566"/>
	<rect x="167.125" y="318.031" fill="#333333" width="5.564" height="5.566"/>
	<rect x="169.104" y="310.875" fill="#333333" width="5.562" height="5.562"/>
	<rect x="212.247" y="65.937" fill="#333333" width="5.562" height="5.568"/>
	<rect x="215.769" y="107.909" fill="#333333" width="5.564" height="5.562"/>
	<rect x="215.168" y="100.526" fill="#333333" width="5.564" height="5.566"/>
	<path fill="#333333" d="M221.999,115.529v-0.03h-0.117C221.915,115.51,221.958,115.521,221.999,115.529z"/>
	<rect x="213.315" y="79.176" fill="#333333" width="5.562" height="5.562"/>
	<rect x="256.789" y="167.653" fill="#333333" width="5.56" height="5.566"/>
	<rect x="213.92" y="86.123" fill="#333333" width="5.566" height="5.565"/>
	<rect x="214.55" y="93.254" fill="#333333" width="5.557" height="5.563"/>
	<rect x="205.442" y="92.227" fill="#333333" width="5.566" height="5.564"/>
	<rect x="203.048" y="71.567" fill="#333333" width="5.567" height="5.565"/>
	<rect x="206.269" y="99.553" fill="#333333" width="5.564" height="5.563"/>
	<rect x="204.611" y="85.092" fill="#333333" width="5.563" height="5.565"/>
	<rect x="203.802" y="78.192" fill="#333333" width="5.562" height="5.562"/>
	<path fill="#333333" d="M224.572,116.503c2.212,0.625,4.048,1.302,5.567,1.994v-2.55h-5.567V116.503z"/>
	<rect x="222.005" y="73.137" fill="#333333" width="5.569" height="5.566"/>
	<rect x="222.423" y="79.963" fill="#333333" width="5.567" height="5.562"/>
	<rect x="222.874" y="86.946" fill="#333333" width="5.567" height="5.567"/>
	<path fill="#333333" d="M232.816,120.038c0.756,0.43,1.407,0.856,1.97,1.271c0.291,0.222,0.551,0.497,0.837,0.737h2.763v-5.566
		h-5.569V120.038z"/>
	<rect x="221.638" y="66.488" fill="#333333" width="5.567" height="5.568"/>
	<path fill="#333333" d="M207.066,112.113c1.466,0.136,2.823,0.3,4.137,0.466h1.431v-5.563h-5.566L207.066,112.113L207.066,112.113z
		"/>
	<rect x="232.513" y="109.176" fill="#333333" width="5.57" height="5.563"/>
	<rect x="212.746" y="72.44" fill="#333333" width="5.565" height="5.567"/>
	<rect x="223.333" y="94.072" fill="#333333" width="5.568" height="5.565"/>
	<rect x="223.795" y="101.305" fill="#333333" width="5.569" height="5.563"/>
	<rect x="224.241" y="108.623" fill="#333333" width="5.566" height="5.563"/>
	<rect x="196.052" y="203.443" fill="#333333" width="5.562" height="5.562"/>
	<rect x="196.076" y="196.221" fill="#333333" width="5.565" height="5.567"/>
	<rect x="169.216" y="62.053" fill="#333333" width="5.562" height="5.567"/>
	<rect x="172.392" y="73.785" fill="#333333" width="5.561" height="5.563"/>
	<rect x="170.712" y="67.607" fill="#333333" width="5.564" height="5.565"/>
	<rect x="195.896" y="181.652" fill="#333333" width="5.563" height="5.566"/>
	<rect x="196.025" y="188.96" fill="#333333" width="5.565" height="5.567"/>
	<path fill="#333333" d="M195.75,179.902h5.562v-1.995c-1.769,0.062-3.622,0.104-5.562,0.122V179.902z"/>
	<rect x="156.735" y="60.235" fill="#333333" width="5.564" height="5.568"/>
	<rect x="179.322" y="103.079" fill="#333333" width="5.565" height="4.398"/>
	<rect x="177.767" y="95.304" fill="#333333" width="5.562" height="5.564"/>
	<rect x="174.177" y="80.52" fill="#333333" width="5.56" height="5.565"/>
	<rect x="175.991" y="87.731" fill="#333333" width="5.561" height="5.564"/>
	<path fill="#333333" d="M203.461,180.038h5.568v-2.448c-1.759,0.149-3.599,0.278-5.568,0.371V180.038z"/>
	<rect x="158.657" y="65.581" fill="#333333" width="5.562" height="5.565"/>
	<rect x="188.38" y="203.416" fill="#333333" width="5.562" height="5.562"/>
	<rect x="187.958" y="217.809" fill="#333333" width="5.567" height="5.564"/>
	<path fill="#333333" d="M211.136,180.148h5.565v-3.338c-1.716,0.268-3.586,0.498-5.565,0.701V180.148z"/>
	<rect x="188.421" y="196.17" fill="#333333" width="5.562" height="5.567"/>
	<rect x="188.229" y="210.625" fill="#333333" width="5.562" height="5.562"/>
	<rect x="195.941" y="210.637" fill="#333333" width="5.563" height="5.564"/>
	<rect x="195.741" y="217.812" fill="#333333" width="5.562" height="5.568"/>
	<rect x="188.359" y="188.879" fill="#333333" width="5.565" height="5.564"/>
	<rect x="188.199" y="181.527" fill="#333333" width="5.562" height="5.564"/>
	<rect x="188.013" y="177.876" fill="#333333" width="5.562" height="1.858"/>
	<rect x="279.495" y="267.984" fill="#333333" width="5.568" height="5.561"/>
	<rect x="271.864" y="117.455" fill="#333333" width="5.57" height="5.564"/>
	<rect x="271.833" y="110.285" fill="#333333" width="5.571" height="5.562"/>
	<rect x="287.065" y="296.643" fill="#333333" width="5.564" height="5.562"/>
	<rect x="271.903" y="131.807" fill="#333333" width="5.568" height="5.565"/>
	<rect x="271.763" y="95.971" fill="#333333" width="5.571" height="5.564"/>
	<rect x="271.8" y="103.119" fill="#333333" width="5.569" height="5.565"/>
	<rect x="271.722" y="88.837" fill="#333333" width="5.569" height="5.565"/>
	<rect x="271.918" y="138.983" fill="#333333" width="5.569" height="5.566"/>
	<rect x="271.931" y="167.659" fill="#333333" width="5.571" height="5.567"/>
	<rect x="271.931" y="160.495" fill="#333333" width="5.571" height="5.561"/>
	<rect x="271.929" y="153.327" fill="#333333" width="5.573" height="5.564"/>
	<rect x="271.927" y="146.158" fill="#333333" width="5.569" height="5.565"/>
	<rect x="279.499" y="167.659" fill="#333333" width="5.57" height="5.567"/>
	<rect x="279.483" y="124.653" fill="#333333" width="5.568" height="5.567"/>
	<rect x="279.47" y="117.484" fill="#333333" width="5.571" height="5.565"/>
	<rect x="279.499" y="181.992" fill="#333333" width="5.57" height="5.564"/>
	<rect x="279.458" y="110.319" fill="#333333" width="5.571" height="5.563"/>
	<rect x="279.44" y="103.16" fill="#333333" width="5.568" height="5.563"/>
	<rect x="279.495" y="138.994" fill="#333333" width="5.568" height="5.565"/>
	<rect x="279.491" y="131.824" fill="#333333" width="5.568" height="5.565"/>
	<rect x="271.931" y="174.826" fill="#333333" width="5.571" height="5.564"/>
	<rect x="279.499" y="174.826" fill="#333333" width="5.57" height="5.564"/>
	<rect x="279.499" y="153.329" fill="#333333" width="5.57" height="5.564"/>
	<rect x="279.499" y="160.496" fill="#333333" width="5.57" height="5.562"/>
	<rect x="279.496" y="146.16" fill="#333333" width="5.57" height="5.569"/>
	<rect x="279.458" y="296.643" fill="#333333" width="5.568" height="5.562"/>
	<rect x="279.499" y="253.65" fill="#333333" width="5.57" height="5.564"/>
	<rect x="279.499" y="217.822" fill="#333333" width="5.57" height="5.566"/>
	<rect x="279.499" y="232.148" fill="#333333" width="5.57" height="5.568"/>
	<rect x="271.931" y="181.992" fill="#333333" width="5.571" height="5.564"/>
	<rect x="279.499" y="246.482" fill="#333333" width="5.57" height="5.566"/>
	<rect x="279.499" y="239.314" fill="#333333" width="5.57" height="5.57"/>
	<rect x="279.499" y="210.652" fill="#333333" width="5.57" height="5.568"/>
	<rect x="287.06" y="303.809" fill="#333333" width="5.562" height="5.564"/>
	<rect x="279.499" y="203.488" fill="#333333" width="5.57" height="5.564"/>
	<rect x="287.054" y="310.975" fill="#333333" width="5.566" height="5.566"/>
	<rect x="287.048" y="318.135" fill="#333333" width="5.563" height="5.568"/>
	<path fill="#333333" d="M279.499,201.889h5.57v-0.291c-1.786-1.179-3.652-2.238-5.57-3.227V201.889z"/>
	<rect x="279.499" y="224.982" fill="#333333" width="5.57" height="5.564"/>
	<rect x="279.429" y="310.975" fill="#333333" width="5.568" height="5.566"/>
	<rect x="279.413" y="318.135" fill="#333333" width="5.57" height="5.568"/>
	<rect x="279.401" y="325.305" fill="#333333" width="5.568" height="5.562"/>
	<rect x="271.931" y="189.154" fill="#333333" width="5.571" height="5.566"/>
	<rect x="279.445" y="303.809" fill="#333333" width="5.571" height="5.564"/>
	<rect x="211.972" y="318.105" fill="#333333" width="5.565" height="5.564"/>
	<rect x="279.423" y="96.006" fill="#333333" width="5.565" height="5.566"/>
	<rect x="279.491" y="275.145" fill="#333333" width="5.566" height="5.566"/>
	<rect x="279.496" y="260.816" fill="#333333" width="5.57" height="5.564"/>
	<rect x="279.482" y="282.311" fill="#333333" width="5.569" height="5.566"/>
	<rect x="279.47" y="289.477" fill="#333333" width="5.569" height="5.564"/>
	<rect x="271.886" y="124.628" fill="#333333" width="5.571" height="5.567"/>
	<rect x="271.876" y="282.311" fill="#333333" width="5.568" height="5.566"/>
	<rect x="256.793" y="174.823" fill="#333333" width="5.565" height="5.567"/>
	<rect x="271.851" y="289.477" fill="#333333" width="5.569" height="5.564"/>
	<rect x="287.074" y="174.826" fill="#333333" width="5.565" height="5.564"/>
	<rect x="271.785" y="303.803" fill="#333333" width="5.57" height="5.568"/>
	<rect x="271.821" y="296.643" fill="#333333" width="5.568" height="5.562"/>
	<rect x="271.931" y="232.148" fill="#333333" width="5.571" height="5.568"/>
	<rect x="271.755" y="310.973" fill="#333333" width="5.57" height="5.568"/>
	<rect x="271.931" y="239.314" fill="#333333" width="5.571" height="5.57"/>
	<rect x="271.923" y="260.816" fill="#333333" width="5.568" height="5.564"/>
	<rect x="271.929" y="253.65" fill="#333333" width="5.573" height="5.564"/>
	<rect x="271.931" y="246.482" fill="#333333" width="5.571" height="5.566"/>
	<rect x="302.207" y="253.65" fill="#333333" width="5.567" height="5.564"/>
	<rect x="302.207" y="289.477" fill="#333333" width="5.567" height="5.564"/>
	<rect x="302.207" y="260.816" fill="#333333" width="5.567" height="5.564"/>
	<rect x="302.207" y="267.984" fill="#333333" width="5.567" height="5.561"/>
	<rect x="302.207" y="275.145" fill="#333333" width="5.567" height="5.566"/>
	<path fill="#333333" d="M315.193,260.816h-5.416v5.564h5.503c0-0.426,0.05-0.842,0.05-1.268
		C315.33,263.654,315.248,262.24,315.193,260.816z"/>
	<rect x="302.207" y="282.311" fill="#333333" width="5.567" height="5.566"/>
	<rect x="302.207" y="232.148" fill="#333333" width="5.567" height="5.568"/>
	<rect x="271.724" y="318.135" fill="#333333" width="5.569" height="5.568"/>
	<rect x="271.694" y="325.305" fill="#333333" width="5.568" height="5.562"/>
	<rect x="271.931" y="224.982" fill="#333333" width="5.571" height="5.564"/>
	<rect x="302.207" y="246.482" fill="#333333" width="5.567" height="5.566"/>
	<rect x="302.207" y="239.314" fill="#333333" width="5.567" height="5.57"/>
	<rect x="271.911" y="267.984" fill="#333333" width="5.571" height="5.561"/>
	<rect x="287.069" y="117.496" fill="#333333" width="5.562" height="5.567"/>
	<rect x="287.073" y="124.662" fill="#333333" width="5.562" height="5.568"/>
	<rect x="287.062" y="110.332" fill="#333333" width="5.562" height="5.564"/>
	<rect x="287.054" y="103.171" fill="#333333" width="5.566" height="5.565"/>
	<rect x="287.074" y="131.83" fill="#333333" width="5.56" height="5.565"/>
	<path fill="#333333" d="M294.64,174.826v3.521c0.666-1.145,1.265-2.326,1.854-3.521H294.64z"/>
	<rect x="287.074" y="160.496" fill="#333333" width="5.565" height="5.562"/>
	<path fill="#333333" d="M299.474,167.659h-4.834v5.567h2.646C298.103,171.431,298.813,169.565,299.474,167.659z"/>
	<rect x="287.074" y="167.659" fill="#333333" width="5.565" height="5.567"/>
	<rect x="287.074" y="138.997" fill="#333333" width="5.565" height="5.567"/>
	<rect x="287.074" y="153.329" fill="#333333" width="5.565" height="5.564"/>
	<rect x="287.074" y="146.162" fill="#333333" width="5.565" height="5.567"/>
	<path fill="#333333" d="M294.64,166.058h5.344c0.074-0.225,0.15-0.446,0.219-0.673v-4.888h-5.562V166.058L294.64,166.058z"/>
	<path fill="#333333" d="M279.499,194.721h0.745c1.69-1.289,3.312-2.645,4.822-4.104v-1.463h-5.568L279.499,194.721L279.499,194.721
		z"/>
	<path fill="#333333" d="M271.931,201.889h5.571v-4.593c-0.155-0.071-0.298-0.17-0.448-0.241c0.15-0.103,0.293-0.224,0.448-0.328
		v-0.405h-5.571V201.889z"/>
	<path fill="#333333" d="M292.257,182.15c0.037-0.051,0.064-0.106,0.101-0.158h-5.283v5.564h0.884
		C289.482,185.844,290.945,184.066,292.257,182.15z"/>
	<rect x="271.931" y="203.488" fill="#333333" width="5.571" height="5.564"/>
	<rect x="271.931" y="210.652" fill="#333333" width="5.571" height="5.568"/>
	<rect x="294.64" y="146.162" fill="#333333" width="5.564" height="5.567"/>
	<rect x="294.64" y="153.329" fill="#333333" width="5.564" height="5.564"/>
	<rect x="294.64" y="124.664" fill="#333333" width="5.564" height="5.568"/>
	<rect x="271.931" y="217.822" fill="#333333" width="5.571" height="5.566"/>
	<rect x="294.64" y="131.831" fill="#333333" width="5.564" height="5.566"/>
	<rect x="294.64" y="138.997" fill="#333333" width="5.564" height="5.567"/>
	<rect x="271.894" y="275.145" fill="#333333" width="5.57" height="5.566"/>
	<rect x="264.361" y="160.49" fill="#333333" width="5.565" height="5.565"/>
	<rect x="264.356" y="153.318" fill="#333333" width="5.562" height="5.565"/>
	<rect x="264.343" y="146.137" fill="#333333" width="5.564" height="5.566"/>
	<rect x="264.366" y="167.657" fill="#333333" width="5.562" height="5.569"/>
	<rect x="264.261" y="275.145" fill="#333333" width="5.567" height="5.566"/>
	<rect x="264.323" y="138.955" fill="#333333" width="5.562" height="5.569"/>
	<rect x="264.218" y="117.391" fill="#333333" width="5.562" height="5.566"/>
	<rect x="264.163" y="110.21" fill="#333333" width="5.562" height="5.564"/>
	<rect x="264.3" y="131.767" fill="#333333" width="5.561" height="5.565"/>
	<rect x="264.103" y="103.043" fill="#333333" width="5.562" height="5.563"/>
	<rect x="264.261" y="124.577" fill="#333333" width="5.564" height="5.569"/>
	<rect x="264.366" y="181.992" fill="#333333" width="5.564" height="5.564"/>
	<rect x="264.329" y="260.816" fill="#333333" width="5.562" height="5.564"/>
	<rect x="264.347" y="253.65" fill="#333333" width="5.562" height="5.564"/>
	<rect x="264.366" y="189.154" fill="#333333" width="5.564" height="5.566"/>
	<rect x="264.366" y="232.148" fill="#333333" width="5.564" height="5.568"/>
	<rect x="264.366" y="239.314" fill="#333333" width="5.561" height="5.57"/>
	<rect x="264.302" y="267.984" fill="#333333" width="5.563" height="5.561"/>
	<rect x="264.036" y="95.891" fill="#333333" width="5.562" height="5.564"/>
	<rect x="264.356" y="246.482" fill="#333333" width="5.564" height="5.566"/>
	<rect x="264.366" y="224.982" fill="#333333" width="5.564" height="5.564"/>
	<rect x="264.366" y="196.321" fill="#333333" width="5.564" height="5.567"/>
	<rect x="264.366" y="203.488" fill="#333333" width="5.564" height="5.564"/>
	<rect x="264.366" y="217.822" fill="#333333" width="5.564" height="5.566"/>
	<rect x="264.366" y="210.652" fill="#333333" width="5.564" height="5.568"/>
	<rect x="264.366" y="174.826" fill="#333333" width="5.564" height="5.564"/>
	<rect x="256.789" y="232.148" fill="#333333" width="5.565" height="5.568"/>
	<rect x="256.695" y="260.814" fill="#333333" width="5.562" height="5.564"/>
	<rect x="256.798" y="217.822" fill="#333333" width="5.562" height="5.566"/>
	<rect x="256.793" y="224.982" fill="#333333" width="5.565" height="5.564"/>
	<rect x="256.736" y="253.65" fill="#333333" width="5.565" height="5.564"/>
	<rect x="256.763" y="246.482" fill="#333333" width="5.566" height="5.566"/>
	<rect x="263.966" y="88.762" fill="#333333" width="5.564" height="5.568"/>
	<rect x="256.798" y="210.652" fill="#333333" width="5.562" height="5.568"/>
	<rect x="256.798" y="189.154" fill="#333333" width="5.562" height="5.566"/>
	<rect x="256.798" y="181.992" fill="#333333" width="5.562" height="5.564"/>
	<rect x="256.798" y="203.488" fill="#333333" width="5.562" height="5.564"/>
	<rect x="256.798" y="196.321" fill="#333333" width="5.562" height="5.567"/>
	<rect x="256.784" y="239.314" fill="#333333" width="5.562" height="5.57"/>
	<rect x="255.836" y="332.467" fill="#333333" width="5.562" height="5.564"/>
	<rect x="255.984" y="318.135" fill="#333333" width="5.563" height="5.566"/>
	<rect x="256.079" y="310.971" fill="#333333" width="5.564" height="5.564"/>
	<rect x="255.901" y="325.301" fill="#333333" width="5.561" height="5.562"/>
	<rect x="287.069" y="289.477" fill="#333333" width="5.562" height="5.564"/>
	<rect x="263.898" y="81.669" fill="#333333" width="5.565" height="5.563"/>
	<rect x="256.571" y="275.145" fill="#333333" width="5.562" height="5.566"/>
	<rect x="256.185" y="303.803" fill="#333333" width="5.565" height="5.568"/>
	<rect x="256.486" y="282.309" fill="#333333" width="5.563" height="5.568"/>
	<rect x="256.29" y="296.639" fill="#333333" width="5.564" height="5.564"/>
	<rect x="256.392" y="289.475" fill="#333333" width="5.562" height="5.566"/>
	<rect x="256.64" y="267.982" fill="#333333" width="5.561" height="5.562"/>
	<rect x="294.64" y="275.145" fill="#333333" width="5.564" height="5.566"/>
	<rect x="294.64" y="267.984" fill="#333333" width="5.564" height="5.561"/>
	<rect x="294.64" y="217.822" fill="#333333" width="5.564" height="5.566"/>
	<rect x="294.64" y="296.643" fill="#333333" width="5.564" height="5.562"/>
	<rect x="294.64" y="289.477" fill="#333333" width="5.564" height="5.564"/>
	<rect x="294.64" y="260.816" fill="#333333" width="5.564" height="5.564"/>
	<rect x="294.64" y="246.482" fill="#333333" width="5.564" height="5.566"/>
	<rect x="294.64" y="224.982" fill="#333333" width="5.564" height="5.564"/>
	<rect x="294.64" y="232.148" fill="#333333" width="5.564" height="5.568"/>
	<rect x="294.64" y="303.809" fill="#333333" width="5.562" height="5.564"/>
	<rect x="294.64" y="253.65" fill="#333333" width="5.564" height="5.564"/>
	<rect x="294.64" y="239.314" fill="#333333" width="5.564" height="5.57"/>
	<rect x="294.64" y="282.311" fill="#333333" width="5.564" height="5.566"/>
	<rect x="287.074" y="267.984" fill="#333333" width="5.565" height="5.561"/>
	<rect x="287.074" y="260.816" fill="#333333" width="5.565" height="5.564"/>
	<rect x="287.074" y="253.65" fill="#333333" width="5.565" height="5.564"/>
	<rect x="287.074" y="246.482" fill="#333333" width="5.565" height="5.566"/>
	<rect x="287.074" y="282.311" fill="#333333" width="5.56" height="5.566"/>
	<rect x="287.074" y="275.145" fill="#333333" width="5.56" height="5.566"/>
	<rect x="287.074" y="224.982" fill="#333333" width="5.565" height="5.564"/>
	<rect x="287.074" y="210.652" fill="#333333" width="5.565" height="5.568"/>
	<rect x="287.074" y="239.314" fill="#333333" width="5.565" height="5.57"/>
	<rect x="287.074" y="217.822" fill="#333333" width="5.565" height="5.566"/>
	<path fill="#333333" d="M287.074,203.488v5.564h5.565v-1.502c-1.571-1.441-3.198-2.804-4.9-4.062L287.074,203.488L287.074,203.488z
		"/>
	<rect x="287.074" y="232.148" fill="#333333" width="5.565" height="5.568"/>
	<path fill="#333333" d="M279.367,83.539V87.3h3.749C281.902,86.004,280.675,84.729,279.367,83.539z"/>
	<path fill="#333333" d="M273.862,79.111c-0.71-0.519-1.504-0.963-2.244-1.455v2.527h3.518
		C274.697,79.844,274.308,79.442,273.862,79.111z"/>
	<path fill="#333333" d="M263.83,74.607v5.564h5.563v-3.83c-0.983-0.601-1.983-1.183-3.014-1.734H263.83L263.83,74.607z"/>
	<rect x="263.88" y="325.303" fill="#333333" width="5.562" height="5.562"/>
	<path fill="#333333" d="M294.64,210.652v5.568h5.564v-0.523c-1.361-1.783-2.822-3.445-4.33-5.045H294.64z"/>
	<rect x="264.22" y="282.311" fill="#333333" width="5.563" height="5.566"/>
	<path fill="#333333" d="M271.681,81.728v5.562h5.565v-5.442c-0.049-0.041-0.099-0.078-0.142-0.121L271.681,81.728L271.681,81.728z"
		/>
	<rect x="263.839" y="332.467" fill="#333333" width="5.565" height="5.564"/>
	<rect x="264.168" y="289.477" fill="#333333" width="5.563" height="5.564"/>
	<rect x="264.108" y="296.643" fill="#333333" width="5.562" height="5.562"/>
	<rect x="263.987" y="310.971" fill="#333333" width="5.564" height="5.566"/>
	<rect x="264.052" y="303.803" fill="#333333" width="5.562" height="5.568"/>
	<rect x="263.929" y="318.135" fill="#333333" width="5.565" height="5.566"/>
	<path fill="#333333" d="M279.401,88.866v5.565h5.568v-5.185c-0.117-0.128-0.24-0.25-0.352-0.382H279.4L279.401,88.866
		L279.401,88.866z"/>
	<path fill="#333333" d="M303.488,142.006c0-1.021-0.12-1.998-0.149-3.008h-1.131v5.566h1.204
		C303.435,143.709,303.488,142.873,303.488,142.006z"/>
	<path fill="#333333" d="M302.925,131.831h-0.718v5.566h1.054C303.168,135.533,303.12,133.654,302.925,131.831z"/>
	<path fill="#333333" d="M303.364,146.162h-1.154v5.567h0.733C303.138,149.908,303.278,148.054,303.364,146.162z"/>
	<path fill="#333333" d="M302.207,153.329v3.596c0.208-1.19,0.427-2.373,0.58-3.596H302.207z"/>
	<path fill="#333333" d="M302.207,218.564v4.824h3.015C304.284,221.732,303.278,220.127,302.207,218.564z"/>
	<path fill="#333333" d="M287.048,96.018v5.565h5.563v-1.706c-0.769-1.323-1.582-2.602-2.417-3.859H287.048z"/>
	<path fill="#333333" d="M287.027,91.585v2.848h2.014C288.368,93.482,287.744,92.492,287.027,91.585z"/>
	<path fill="#333333" d="M295.896,105.942c-0.379-0.818-0.86-1.548-1.262-2.344v5.141h2.361
		C296.606,107.813,296.31,106.847,295.896,105.942z"/>
	<path fill="#333333" d="M297.632,110.336h-2.992v5.561h4.992C299.045,114.006,298.349,112.165,297.632,110.336z"/>
	<path fill="#333333" d="M302.207,127.2v3.032h0.468C302.548,129.209,302.371,128.205,302.207,127.2z"/>
	<path fill="#333333" d="M294.64,117.498v5.566h5.564v-5.036c-0.05-0.176-0.088-0.353-0.139-0.53H294.64z"/>
	<rect x="249.101" y="146.037" fill="#333333" width="5.563" height="5.566"/>
	<rect x="130.727" y="120.345" fill="#333333" width="5.562" height="5.564"/>
	<rect x="127.482" y="110.694" fill="#333333" width="5.561" height="5.568"/>
	<rect x="119.236" y="90.961" fill="#333333" width="5.562" height="5.563"/>
	<rect x="123.667" y="100.874" fill="#333333" width="5.561" height="5.564"/>
	<rect x="135.712" y="138.904" fill="#333333" width="5.559" height="5.567"/>
	<rect x="133.45" y="129.762" fill="#333333" width="5.561" height="5.565"/>
	<rect x="88.642" y="42.818" fill="#333333" width="5.562" height="5.565"/>
	<rect x="137.56" y="147.766" fill="#333333" width="5.56" height="5.566"/>
	<rect x="114.163" y="81.048" fill="#333333" width="5.561" height="5.562"/>
	<rect x="95.481" y="52.042" fill="#333333" width="5.562" height="5.562"/>
	<rect x="102.18" y="61.537" fill="#333333" width="5.561" height="5.568"/>
	<rect x="108.456" y="71.223" fill="#333333" width="5.562" height="5.563"/>
	<rect x="142.056" y="188.234" fill="#333333" width="5.561" height="5.566"/>
	<rect x="139.604" y="224.938" fill="#333333" width="5.562" height="5.566"/>
	<rect x="140.723" y="217.73" fill="#333333" width="5.562" height="5.568"/>
	<rect x="141.498" y="210.479" fill="#333333" width="5.56" height="5.566"/>
	<rect x="138.1" y="232.117" fill="#333333" width="5.562" height="5.564"/>
	<rect x="141.964" y="203.163" fill="#333333" width="5.559" height="5.563"/>
	<rect x="136.159" y="239.279" fill="#333333" width="5.562" height="5.57"/>
	<rect x="141.706" y="180.566" fill="#333333" width="5.562" height="5.566"/>
	<rect x="140.218" y="164.649" fill="#333333" width="5.56" height="5.566"/>
	<rect x="141.098" y="172.718" fill="#333333" width="5.559" height="5.564"/>
	<rect x="139.049" y="156.342" fill="#333333" width="5.559" height="5.563"/>
	<rect x="82.144" y="34.078" fill="#333333" width="5.561" height="5.569"/>
	<rect x="142.143" y="195.756" fill="#333333" width="5.561" height="5.567"/>
	<rect x="30.297" y="339.109" fill="#333333" width="5.561" height="5.568"/>
	<rect x="130.008" y="232.113" fill="#333333" width="5.56" height="5.566"/>
	<rect x="127.889" y="239.275" fill="#333333" width="5.561" height="5.568"/>
	<rect x="78.058" y="30.197" fill="#333333" width="5.562" height="1.61"/>
	<rect x="132.875" y="217.721" fill="#333333" width="5.562" height="5.566"/>
	<rect x="125.228" y="246.432" fill="#333333" width="5.562" height="5.566"/>
	<rect x="121.955" y="253.578" fill="#333333" width="5.559" height="5.57"/>
	<rect x="131.651" y="224.928" fill="#333333" width="5.561" height="5.564"/>
	<rect x="133.989" y="180.439" fill="#333333" width="5.562" height="5.566"/>
	<rect x="134.361" y="188.148" fill="#333333" width="5.559" height="5.563"/>
	<rect x="133.724" y="210.457" fill="#333333" width="5.562" height="5.564"/>
	<rect x="134.239" y="203.128" fill="#333333" width="5.559" height="5.562"/>
	<rect x="134.443" y="195.699" fill="#333333" width="5.561" height="5.566"/>
	<rect x="117.996" y="260.729" fill="#333333" width="5.562" height="5.564"/>
	<rect x="56.527" y="317.746" fill="#333333" width="5.562" height="5.562"/>
	<rect x="46.409" y="324.859" fill="#333333" width="5.56" height="5.564"/>
	<rect x="133.731" y="246.434" fill="#333333" width="5.561" height="5.566"/>
	<rect x="37.265" y="331.979" fill="#333333" width="5.561" height="5.568"/>
	<rect x="66.764" y="310.627" fill="#333333" width="5.559" height="5.57"/>
	<rect x="101.308" y="282.139" fill="#333333" width="5.562" height="5.566"/>
	<rect x="113.28" y="267.867" fill="#333333" width="5.562" height="5.566"/>
	<rect x="107.737" y="275.006" fill="#333333" width="5.562" height="5.562"/>
	<rect x="76.592" y="303.512" fill="#333333" width="5.561" height="5.566"/>
	<rect x="85.711" y="296.395" fill="#333333" width="5.559" height="5.562"/>
	<rect x="93.967" y="289.266" fill="#333333" width="5.562" height="5.568"/>
	<rect x="136.476" y="260.746" fill="#333333" width="5.562" height="5.564"/>
	<rect x="149.296" y="210.506" fill="#333333" width="5.562" height="5.566"/>
	<rect x="149.706" y="203.206" fill="#333333" width="5.562" height="5.562"/>
	<rect x="149.86" y="195.825" fill="#333333" width="5.562" height="5.567"/>
	<rect x="149.772" y="188.336" fill="#333333" width="5.56" height="5.566"/>
	<rect x="147.603" y="224.945" fill="#333333" width="5.563" height="5.566"/>
	<rect x="130.746" y="253.59" fill="#333333" width="5.562" height="5.561"/>
	<rect x="148.888" y="172.93" fill="#333333" width="5.561" height="5.566"/>
	<rect x="149.45" y="180.715" fill="#333333" width="5.56" height="5.567"/>
	<rect x="145.663" y="148.291" fill="#333333" width="5.561" height="5.566"/>
	<rect x="143.982" y="139.589" fill="#333333" width="5.564" height="5.567"/>
	<rect x="148.081" y="164.946" fill="#333333" width="5.563" height="5.565"/>
	<rect x="146.256" y="232.121" fill="#333333" width="5.562" height="5.564"/>
	<rect x="147.015" y="156.739" fill="#333333" width="5.562" height="5.562"/>
	<rect x="111.616" y="296.447" fill="#333333" width="5.564" height="5.562"/>
	<rect x="117.734" y="289.312" fill="#333333" width="5.563" height="5.564"/>
	<rect x="105.092" y="303.578" fill="#333333" width="5.564" height="5.566"/>
	<rect x="144.516" y="239.285" fill="#333333" width="5.564" height="5.566"/>
	<rect x="91.694" y="317.842" fill="#333333" width="5.563" height="5.568"/>
	<rect x="98.352" y="310.713" fill="#333333" width="5.564" height="5.562"/>
	<rect x="123.322" y="282.176" fill="#333333" width="5.563" height="5.564"/>
	<rect x="128.317" y="275.033" fill="#333333" width="5.562" height="5.564"/>
	<rect x="139.676" y="253.592" fill="#333333" width="5.563" height="5.564"/>
	<rect x="142.341" y="246.439" fill="#333333" width="5.562" height="5.564"/>
	<rect x="132.699" y="267.889" fill="#333333" width="5.561" height="5.566"/>
	<rect x="133.336" y="172.538" fill="#333333" width="5.562" height="5.567"/>
	<rect x="148.601" y="217.746" fill="#333333" width="5.566" height="5.564"/>
	<rect x="74.201" y="317.795" fill="#333333" width="5.562" height="5.562"/>
	<rect x="82.515" y="310.668" fill="#333333" width="5.561" height="5.57"/>
	<rect x="90.728" y="303.543" fill="#333333" width="5.561" height="5.566"/>
	<rect x="66.27" y="324.922" fill="#333333" width="5.562" height="5.561"/>
	<rect x="54.354" y="339.191" fill="#333333" width="5.562" height="5.568"/>
	<rect x="98.52" y="296.422" fill="#333333" width="5.562" height="5.561"/>
	<rect x="112.177" y="282.156" fill="#333333" width="5.561" height="5.566"/>
	<rect x="122.887" y="267.879" fill="#333333" width="5.559" height="5.562"/>
	<rect x="127.151" y="260.736" fill="#333333" width="5.562" height="5.564"/>
	<rect x="105.703" y="289.289" fill="#333333" width="5.563" height="5.562"/>
	<rect x="117.907" y="275.018" fill="#333333" width="5.56" height="5.564"/>
	<rect x="59.387" y="332.053" fill="#333333" width="5.562" height="5.562"/>
	<rect x="129.272" y="93.122" fill="#333333" width="5.562" height="5.563"/>
	<rect x="141.938" y="130.641" fill="#333333" width="5.562" height="5.565"/>
	<rect x="124.854" y="83.722" fill="#333333" width="5.562" height="5.564"/>
	<rect x="133.179" y="102.617" fill="#333333" width="5.561" height="5.564"/>
	<rect x="139.481" y="121.459" fill="#333333" width="5.562" height="5.566"/>
	<rect x="136.572" y="112.095" fill="#333333" width="5.563" height="5.567"/>
	<rect x="98.607" y="41.739" fill="#333333" width="5.562" height="5.569"/>
	<rect x="103.667" y="49.174" fill="#333333" width="5.563" height="5.566"/>
	<rect x="95.468" y="38.85" fill="#333333" width="5.562" height="1.612"/>
	<rect x="119.953" y="74.54" fill="#333333" width="5.562" height="5.565"/>
	<rect x="114.66" y="65.676" fill="#333333" width="5.563" height="5.567"/>
	<rect x="109.142" y="57.201" fill="#333333" width="5.564" height="5.562"/>
	<path fill="#333333" d="M309.777,295.041h0.637c0.624-1.838,1.222-3.688,1.728-5.566h-2.363L309.777,295.041L309.777,295.041z"/>
	<path fill="#333333" d="M194.601,302.16h5.569v-4.199c-1.78,0.076-3.616,0.137-5.569,0.182V302.16z"/>
	<rect x="189.22" y="332.4" fill="#333333" width="5.567" height="5.566"/>
	<rect x="188.692" y="339.557" fill="#333333" width="5.566" height="5.572"/>
	<path fill="#333333" d="M184.153,302.146h5.562v-3.982c-1.785,0.035-3.643,0.057-5.562,0.064V302.146z"/>
	<rect x="190.007" y="325.236" fill="#333333" width="5.566" height="5.564"/>
	<rect x="176.121" y="346.699" fill="#333333" width="5.562" height="2.301"/>
	<rect x="162.734" y="346.674" fill="#333333" width="5.565" height="2.295"/>
	<path fill="#333333" d="M199.918,348.979c1.911-0.02,3.74-0.064,5.563-0.111v-2.117h-5.563V348.979z"/>
	<path fill="#333333" d="M210.583,348.832c1.9-0.059,3.756-0.121,5.562-0.193v-1.877h-5.562V348.832z"/>
	<path fill="#333333" d="M188.476,349.018c1.918,0,3.729-0.023,5.569-0.041v-2.254h-5.569V349.018z"/>
	<rect x="193.418" y="303.756" fill="#333333" width="5.569" height="5.562"/>
	<rect x="192.159" y="310.916" fill="#333333" width="5.566" height="5.562"/>
	<rect x="191" y="318.074" fill="#333333" width="5.569" height="5.568"/>
	<rect x="45.137" fill="#333333" width="5.568" height="1.613"/>
	<rect x="78.904" y="53.485" fill="#333333" width="5.568" height="5.568"/>
	<rect x="51.108" y="11.249" fill="#333333" width="5.568" height="5.568"/>
	<rect x="27.254" y="346.262" fill="#333333" width="5.56" height="2.293"/>
	<rect x="69.92" y="41.2" fill="#333333" width="5.569" height="5.562"/>
	<rect x="60.38" y="27.525" fill="#333333" width="5.568" height="5.566"/>
	<rect x="148.164" y="346.637" fill="#333333" width="5.563" height="2.299"/>
	<rect x="52.221" y="346.35" fill="#333333" width="5.562" height="2.291"/>
	<rect x="132.396" y="164.402" fill="#333333" width="5.562" height="5.565"/>
	<rect x="132.281" y="346.598" fill="#333333" width="5.563" height="2.295"/>
	<rect x="95.872" y="346.488" fill="#333333" width="5.568" height="2.297"/>
	<rect x="75.036" y="346.426" fill="#333333" width="5.563" height="2.291"/>
	<rect y="346.16" fill="#333333" width="5.568" height="2.297"/>
	<rect x="85.511" y="324.982" fill="#333333" width="5.563" height="5.562"/>
	<path fill="#333333" d="M309.777,296.947c0.036-0.102,0.069-0.203,0.1-0.305h-0.1V296.947z"/>
	<path fill="#333333" d="M220.566,348.559c1.905-0.09,3.776-0.189,5.565-0.303v-1.482h-5.565V348.559z"/>
	<path fill="#333333" d="M302.207,302.205h5.45c0.034-0.088,0.084-0.174,0.118-0.266v-5.297h-5.567L302.207,302.205L302.207,302.205
		z"/>
	<path fill="#333333" d="M309.777,280.709h4.231c0.303-1.84,0.565-3.693,0.76-5.564h-4.992L309.777,280.709L309.777,280.709z"/>
	<path fill="#333333" d="M302.207,224.982v5.564h5.567v-2.234c-0.523-1.129-1.067-2.238-1.65-3.33H302.207z"/>
	<path fill="#333333" d="M314.66,253.65h-4.883v5.564h5.36C315.037,257.326,314.861,255.479,314.66,253.65z"/>
	<path fill="#333333" d="M311.896,239.314h-2.118v5.57h3.528C312.897,242.984,312.419,241.137,311.896,239.314z"/>
	<path fill="#333333" d="M309.777,232.955v4.764h1.679C310.948,236.094,310.382,234.514,309.777,232.955z"/>
	<path fill="#333333" d="M313.591,246.482h-3.812v5.566h4.721C314.255,250.154,313.94,248.307,313.591,246.482z"/>
	<path fill="#333333" d="M309.777,273.545h5.179c0.157-1.836,0.194-3.703,0.249-5.562h-5.428V273.545L309.777,273.545z"/>
	<path fill="#333333" d="M302.207,309.373h1.91c1.005-1.805,1.942-3.66,2.823-5.564h-4.733V309.373L302.207,309.373z"/>
	<path fill="#333333" d="M309.777,287.877h2.735c0.457-1.848,0.937-3.686,1.274-5.566h-4.01V287.877z"/>
	<path fill="#333333" d="M302.207,312.697c0.347-0.561,0.653-1.154,0.987-1.723h-0.987V312.697z"/>
	<path fill="#333333" d="M263.816,342.916c1.879-0.637,3.776-1.248,5.56-2.016v-1.268h-5.56V342.916z"/>
	<path fill="#333333" d="M229.991,348.123c1.919-0.141,3.781-0.289,5.564-0.453v-0.889h-5.564V348.123z"/>
	<path fill="#333333" d="M238.941,347.475c1.942-0.205,3.797-0.43,5.567-0.67v-0.02h-5.567V347.475z"/>
	<path fill="#333333" d="M271.589,339.914c0.186-0.09,0.379-0.189,0.569-0.279h-0.569V339.914z"/>
	<path fill="#333333" d="M255.789,345.145c1.335-0.303,2.646-0.604,3.834-0.939c0.597-0.166,1.136-0.414,1.731-0.596v-3.979h-5.565
		V345.145z"/>
	<path fill="#333333" d="M294.638,316.541h4.961c0.197-0.279,0.404-0.551,0.599-0.836v-4.73h-5.56V316.541L294.638,316.541z"/>
	<path fill="#333333" d="M271.675,338.039h3.803c0.578-0.312,1.199-0.561,1.765-0.893v-4.676h-5.567V338.039L271.675,338.039z"/>
	<path fill="#333333" d="M294.638,322.793c1.322-1.496,2.586-3.049,3.795-4.658h-3.795V322.793z"/>
	<path fill="#333333" d="M279.386,335.814c1.701-1.072,3.412-2.133,4.992-3.342h-4.992V335.814z"/>
	<path fill="#333333" d="M287.043,330.227c1.407-1.199,2.845-2.355,4.146-3.678c0.399-0.393,0.737-0.844,1.128-1.244h-5.273
		L287.043,330.227L287.043,330.227z"/>
	<rect x="114.899" y="346.547" fill="#333333" width="5.562" height="2.297"/>
	<rect x="4.574" y="339.02" fill="#333333" width="5.568" height="5.568"/>
	<rect x="26.66" y="324.803" fill="#333333" width="5.568" height="5.559"/>
	<rect x="14.491" y="331.902" fill="#333333" width="5.569" height="5.568"/>
	<rect x="61.123" y="16.789" fill="#333333" width="5.56" height="1.612"/>
	<rect x="73.897" y="35.595" fill="#333333" width="5.562" height="5.565"/>
	<rect x="39.378" y="317.695" fill="#333333" width="5.568" height="5.566"/>
	<rect x="65.962" y="23.945" fill="#333333" width="5.56" height="5.569"/>
	<rect x="82.803" y="289.25" fill="#333333" width="5.569" height="5.562"/>
	<rect x="90.925" y="282.125" fill="#333333" width="5.569" height="5.562"/>
	<rect x="73.552" y="296.371" fill="#333333" width="5.568" height="5.562"/>
	<rect x="63.161" y="303.482" fill="#333333" width="5.569" height="5.564"/>
	<rect x="97.969" y="274.996" fill="#333333" width="5.568" height="5.562"/>
	<rect x="51.697" y="310.59" fill="#333333" width="5.568" height="5.568"/>
	<rect x="125.101" y="129.008" fill="#333333" width="5.561" height="5.565"/>
	<rect x="82.183" y="46.606" fill="#333333" width="5.561" height="5.563"/>
	<rect x="127.544" y="138.323" fill="#333333" width="5.562" height="5.566"/>
	<rect x="118.605" y="109.46" fill="#333333" width="5.562" height="5.568"/>
	<rect x="129.535" y="147.324" fill="#333333" width="5.561" height="5.561"/>
	<rect x="131.138" y="156.009" fill="#333333" width="5.562" height="5.561"/>
	<rect x="122.144" y="119.378" fill="#333333" width="5.562" height="5.565"/>
	<rect x="97.364" y="67.99" fill="#333333" width="5.561" height="5.565"/>
	<rect x="90.109" y="57.365" fill="#333333" width="5.558" height="5.568"/>
	<rect x="86.992" y="65.111" fill="#333333" width="5.569" height="5.564"/>
	<rect x="103.838" y="78.526" fill="#333333" width="5.562" height="5.563"/>
	<rect x="114.416" y="99.311" fill="#333333" width="5.562" height="5.564"/>
	<rect x="109.513" y="88.979" fill="#333333" width="5.559" height="5.564"/>
	<rect x="103.998" y="267.859" fill="#333333" width="5.569" height="5.562"/>
	<rect x="116.934" y="128.422" fill="#333333" width="5.566" height="5.568"/>
	<rect x="119.516" y="137.875" fill="#333333" width="5.568" height="5.566"/>
	<rect x="123.305" y="155.753" fill="#333333" width="5.569" height="5.563"/>
	<rect x="124.629" y="164.214" fill="#333333" width="5.569" height="5.566"/>
	<rect x="125.621" y="172.399" fill="#333333" width="5.568" height="5.57"/>
	<rect x="94.105" y="76.351" fill="#333333" width="5.568" height="5.564"/>
	<rect x="100.271" y="87.32" fill="#333333" width="5.567" height="5.564"/>
	<rect x="126.303" y="180.342" fill="#333333" width="5.569" height="5.566"/>
	<rect x="110.032" y="108.477" fill="#333333" width="5.568" height="5.568"/>
	<rect x="105.55" y="98.033" fill="#333333" width="5.57" height="5.568"/>
	<rect x="113.798" y="118.616" fill="#333333" width="5.569" height="5.564"/>
	<rect x="121.621" y="146.985" fill="#333333" width="5.568" height="5.562"/>
	<rect x="116.878" y="246.428" fill="#333333" width="5.569" height="5.564"/>
	<rect x="122" y="232.107" fill="#333333" width="5.568" height="5.566"/>
	<rect x="119.728" y="239.271" fill="#333333" width="5.568" height="5.568"/>
	<rect x="126.683" y="188.08" fill="#333333" width="5.567" height="5.564"/>
	<rect x="113.364" y="253.574" fill="#333333" width="5.568" height="5.568"/>
	<rect x="109.099" y="260.721" fill="#333333" width="5.568" height="5.566"/>
	<rect x="123.76" y="224.924" fill="#333333" width="5.569" height="5.568"/>
	<rect x="126.538" y="203.1" fill="#333333" width="5.568" height="5.562"/>
	<rect x="126.763" y="195.656" fill="#333333" width="5.57" height="5.564"/>
	<rect x="125.981" y="210.441" fill="#333333" width="5.569" height="5.566"/>
	<rect x="125.069" y="217.709" fill="#333333" width="5.569" height="5.566"/>
	<rect x="239.663" y="310.963" fill="#333333" width="5.571" height="5.568"/>
	<rect x="249.231" y="189.154" fill="#333333" width="5.562" height="5.566"/>
	<path fill="#333333" d="M211.944,64.949h5.564v-1.085c-1.783-0.1-3.646-0.179-5.564-0.251V64.949z"/>
	<rect x="239.276" y="67.213" fill="#333333" width="5.57" height="5.569"/>
	<path fill="#333333" d="M230.277,65.227v0.368h3.268C232.479,65.469,231.414,65.339,230.277,65.227z"/>
	<path fill="#333333" d="M221.423,65.344h5.564v-0.545c-1.773-0.154-3.631-0.296-5.564-0.416V65.344z"/>
	<path fill="#333333" d="M198.082,110.498c1.978,0.089,3.806,0.211,5.566,0.351v-4.938h-5.566V110.498z"/>
	<path fill="#333333" d="M191.427,63.846h5.569v-1.569c-1.81-0.023-3.663-0.035-5.569-0.039V63.846z"/>
	<rect x="183.386" y="75.532" fill="#333333" width="5.562" height="5.564"/>
	<path fill="#333333" d="M188.826,109.009c1.94,0.015,3.791,0.048,5.562,0.107v-4.522h-5.562V109.009z"/>
	<rect x="184.771" y="82.316" fill="#333333" width="5.562" height="5.567"/>
	<rect x="180.937" y="63.375" fill="#333333" width="5.565" height="5.568"/>
	<rect x="182.089" y="69.202" fill="#333333" width="5.562" height="5.567"/>
	<rect x="249.222" y="224.982" fill="#333333" width="5.566" height="5.564"/>
	<rect x="249.209" y="232.148" fill="#333333" width="5.563" height="5.568"/>
	<rect x="249.231" y="210.652" fill="#333333" width="5.562" height="5.568"/>
	<path fill="#333333" d="M241.601,232.883c2.093,1.402,3.937,3.016,5.572,4.807v-5.541h-5.572V232.883z"/>
	<rect x="249.226" y="217.822" fill="#333333" width="5.566" height="5.566"/>
	<rect x="249.231" y="203.488" fill="#333333" width="5.562" height="5.564"/>
	<rect x="249.231" y="196.321" fill="#333333" width="5.562" height="5.567"/>
	<rect x="186.187" y="89.484" fill="#333333" width="5.562" height="5.565"/>
	<path fill="#333333" d="M254.615,252.049h0.108v-5.566h-1.969C253.499,248.248,254.146,250.084,254.615,252.049z"/>
	<path fill="#333333" d="M249.185,240.076c0.761,1.033,1.483,2.102,2.125,3.256c0.276,0.492,0.47,1.043,0.722,1.555h2.719v-5.57
		h-5.565V240.076L249.185,240.076z"/>
	<path fill="#333333" d="M247.657,72.977h5.566v-3.55c-1.805-0.57-3.672-1.053-5.566-1.516V72.977z"/>
	<rect x="173.037" y="196.046" fill="#333333" width="5.562" height="5.569"/>
	<path fill="#333333" d="M254.513,273.545v-1.744c-0.136,0.592-0.328,1.162-0.492,1.744H254.513z"/>
	<path fill="#333333" d="M201.972,64.456h5.564v-1.413c-1.788-0.056-3.662-0.092-5.564-0.125V64.456z"/>
	<rect x="166.646" y="253.617" fill="#333333" width="5.564" height="5.564"/>
	<rect x="156.674" y="282.229" fill="#333333" width="5.563" height="5.564"/>
	<rect x="169.708" y="239.295" fill="#333333" width="5.562" height="5.566"/>
	<rect x="168.328" y="246.459" fill="#333333" width="5.563" height="5.564"/>
	<rect x="162.308" y="267.924" fill="#333333" width="5.564" height="5.562"/>
	<rect x="159.644" y="275.076" fill="#333333" width="5.562" height="5.564"/>
	<rect x="164.644" y="260.771" fill="#333333" width="5.563" height="5.566"/>
	<rect x="172.712" y="210.584" fill="#333333" width="5.563" height="5.562"/>
	<rect x="172.956" y="203.344" fill="#333333" width="5.562" height="5.562"/>
	<rect x="171.66" y="224.963" fill="#333333" width="5.563" height="5.57"/>
	<rect x="172.288" y="217.789" fill="#333333" width="5.564" height="5.562"/>
	<rect x="187.584" y="96.954" fill="#333333" width="5.567" height="5.563"/>
	<rect x="170.81" y="232.137" fill="#333333" width="5.563" height="5.564"/>
	<rect x="134.524" y="332.277" fill="#333333" width="5.564" height="5.564"/>
	<rect x="155.556" y="58.822" fill="#333333" width="5.565" height="1.61"/>
	<rect x="168.292" y="60.421" fill="#333333" width="5.565" height="1.612"/>
	<rect x="132.929" y="339.43" fill="#333333" width="5.563" height="5.572"/>
	<rect x="180.222" y="61.465" fill="#333333" width="5.566" height="1.613"/>
	<rect x="139.754" y="317.969" fill="#333333" width="5.562" height="5.568"/>
	<rect x="150.018" y="296.527" fill="#333333" width="5.565" height="5.562"/>
	<rect x="146.504" y="303.674" fill="#333333" width="5.564" height="5.564"/>
	<rect x="153.442" y="289.375" fill="#333333" width="5.562" height="5.564"/>
	<rect x="143.03" y="310.822" fill="#333333" width="5.561" height="5.562"/>
	<rect x="136.859" y="325.121" fill="#333333" width="5.562" height="5.564"/>
	<path fill="#333333" d="M251.702,279.443c-0.217,0.449-0.484,0.838-0.715,1.266h3.402v-5.562h-0.944
		C252.952,276.621,252.382,278.062,251.702,279.443z"/>
	<rect x="239.08" y="332.461" fill="#333333" width="5.57" height="5.562"/>
	<path fill="#333333" d="M232.073,295.035h5.564v-2.566c-1.621,0.869-3.477,1.633-5.564,2.291V295.035z"/>
	<rect x="238.978" y="339.623" fill="#333333" width="5.572" height="5.564"/>
	<rect x="231.773" y="296.631" fill="#333333" width="5.565" height="5.566"/>
	<rect x="231.398" y="303.797" fill="#333333" width="5.565" height="5.561"/>
	<rect x="231.038" y="310.957" fill="#333333" width="5.566" height="5.564"/>
	<rect x="249.226" y="181.987" fill="#333333" width="5.566" height="5.567"/>
	<rect x="239.909" y="303.797" fill="#333333" width="5.57" height="5.568"/>
	<rect x="240.166" y="296.635" fill="#333333" width="5.571" height="5.562"/>
	<rect x="212.619" y="310.945" fill="#333333" width="5.56" height="5.564"/>
	<rect x="239.431" y="318.129" fill="#333333" width="5.571" height="5.562"/>
	<rect x="239.235" y="325.293" fill="#333333" width="5.57" height="5.564"/>
	<rect x="222.552" y="303.787" fill="#333333" width="5.566" height="5.564"/>
	<rect x="230.423" y="325.289" fill="#333333" width="5.565" height="5.561"/>
	<rect x="220.648" y="339.605" fill="#333333" width="5.565" height="5.572"/>
	<rect x="221.175" y="325.279" fill="#333333" width="5.566" height="5.564"/>
	<rect x="221.575" y="318.115" fill="#333333" width="5.566" height="5.564"/>
	<path fill="#333333" d="M214.04,302.18h5.562v-5.375c-1.676,0.229-3.533,0.43-5.562,0.598V302.18z"/>
	<rect x="213.318" y="303.777" fill="#333333" width="5.565" height="5.566"/>
	<rect x="220.862" y="332.443" fill="#333333" width="5.564" height="5.562"/>
	<rect x="230.048" y="339.613" fill="#333333" width="5.565" height="5.574"/>
	<rect x="230.195" y="332.451" fill="#333333" width="5.571" height="5.566"/>
	<rect x="223.085" y="296.625" fill="#333333" width="5.566" height="5.564"/>
	<rect x="222.039" y="310.953" fill="#333333" width="5.567" height="5.566"/>
	<path fill="#333333" d="M240.574,291.217c-0.045,0.033-0.101,0.055-0.151,0.088v3.732h5.57v-5.562h-3.105
		C242.14,290.07,241.398,290.676,240.574,291.217z"/>
	<rect x="230.707" y="318.123" fill="#333333" width="5.566" height="5.564"/>
	<rect x="248.579" y="109.887" fill="#333333" width="5.562" height="5.562"/>
	<path fill="#333333" d="M246.304,287.871v-1.285c-0.408,0.445-0.849,0.865-1.295,1.285H246.304z"/>
	<rect x="248.843" y="124.339" fill="#333333" width="5.562" height="5.568"/>
	<rect x="248.265" y="95.521" fill="#333333" width="5.564" height="5.563"/>
	<rect x="248.427" y="102.684" fill="#333333" width="5.565" height="5.565"/>
	<rect x="248.944" y="131.579" fill="#333333" width="5.566" height="5.566"/>
	<rect x="76.584" y="339.266" fill="#333333" width="5.562" height="5.566"/>
	<rect x="249.031" y="138.812" fill="#333333" width="5.565" height="5.569"/>
	<rect x="249.206" y="167.638" fill="#333333" width="5.566" height="5.565"/>
	<rect x="249.222" y="174.817" fill="#333333" width="5.566" height="5.568"/>
	<rect x="249.185" y="160.452" fill="#333333" width="5.565" height="5.562"/>
	<rect x="249.149" y="153.251" fill="#333333" width="5.566" height="5.565"/>
	<rect x="248.714" y="117.104" fill="#333333" width="5.566" height="5.565"/>
	<rect x="247.843" y="318.133" fill="#333333" width="5.561" height="5.564"/>
	<rect x="247.709" y="325.299" fill="#333333" width="5.562" height="5.562"/>
	<rect x="247.607" y="332.463" fill="#333333" width="5.565" height="5.566"/>
	<rect x="247.536" y="339.625" fill="#333333" width="5.564" height="5.568"/>
	<rect x="247.992" y="310.969" fill="#333333" width="5.563" height="5.564"/>
	<path fill="#333333" d="M248.646,284.119v3.758h5.568v-5.566H249.9C249.507,282.938,249.081,283.531,248.646,284.119z"/>
	<rect x="247.787" y="74.343" fill="#333333" width="5.565" height="5.565"/>
	<rect x="247.94" y="81.339" fill="#333333" width="5.561" height="5.562"/>
	<rect x="248.159" y="303.801" fill="#333333" width="5.564" height="5.568"/>
	<rect x="248.493" y="289.475" fill="#333333" width="5.564" height="5.564"/>
	<rect x="248.326" y="296.639" fill="#333333" width="5.565" height="5.561"/>
	<rect x="248.101" y="88.4" fill="#333333" width="5.564" height="5.565"/>
	<rect x="134.549" y="282.195" fill="#333333" width="5.569" height="5.564"/>
	<rect x="138.824" y="275.043" fill="#333333" width="5.568" height="5.57"/>
	<rect x="142.606" y="267.902" fill="#333333" width="5.568" height="5.562"/>
	<rect x="155.623" y="224.955" fill="#333333" width="5.568" height="5.566"/>
	<rect x="119.327" y="303.609" fill="#333333" width="5.569" height="5.568"/>
	<rect x="124.704" y="296.475" fill="#333333" width="5.569" height="5.562"/>
	<rect x="129.82" y="289.334" fill="#333333" width="5.567" height="5.562"/>
	<rect x="154.441" y="232.127" fill="#333333" width="5.569" height="5.564"/>
	<rect x="145.884" y="260.754" fill="#333333" width="5.568" height="5.564"/>
	<rect x="152.915" y="239.289" fill="#333333" width="5.568" height="5.566"/>
	<rect x="148.676" y="253.602" fill="#333333" width="5.569" height="5.564"/>
	<rect x="151.007" y="246.443" fill="#333333" width="5.568" height="5.568"/>
	<rect x="113.867" y="310.752" fill="#333333" width="5.568" height="5.564"/>
	<rect x="132.472" y="59.369" fill="#333333" width="5.562" height="5.566"/>
	<rect x="143.116" y="80.702" fill="#333333" width="5.56" height="5.565"/>
	<rect x="135.93" y="65.814" fill="#333333" width="5.563" height="5.562"/>
	<rect x="139.538" y="72.953" fill="#333333" width="5.563" height="5.567"/>
	<rect x="108.579" y="317.891" fill="#333333" width="5.568" height="5.564"/>
	<rect x="149.679" y="97.503" fill="#333333" width="5.564" height="5.562"/>
	<rect x="146.523" y="88.934" fill="#333333" width="5.562" height="5.564"/>
	<rect x="129.388" y="53.653" fill="#333333" width="5.563" height="5.569"/>
	<rect x="97.018" y="339.33" fill="#333333" width="5.569" height="5.566"/>
	<rect x="103.77" y="325.031" fill="#333333" width="5.568" height="5.566"/>
	<rect x="127.523" y="51.942" fill="#333333" width="5.562" height="1.611"/>
	<rect x="99.796" y="332.18" fill="#333333" width="5.568" height="5.562"/>
	<rect x="118.362" y="54.76" fill="#333333" width="5.569" height="5.565"/>
	<rect x="135.696" y="86.389" fill="#333333" width="5.57" height="5.564"/>
	<rect x="127.195" y="69.532" fill="#333333" width="5.568" height="5.567"/>
	<rect x="139.465" y="95.335" fill="#333333" width="5.568" height="5.563"/>
	<rect x="131.573" y="77.744" fill="#333333" width="5.568" height="5.566"/>
	<rect x="145.792" y="113.584" fill="#333333" width="5.568" height="5.569"/>
	<rect x="142.836" y="104.442" fill="#333333" width="5.568" height="5.568"/>
	<rect x="114.435" y="48.287" fill="#333333" width="5.568" height="5.569"/>
	<rect x="112.051" y="45.996" fill="#333333" width="5.568" height="1.612"/>
	<rect x="80.297" y="332.121" fill="#333333" width="5.564" height="5.564"/>
	<rect x="148.34" y="122.661" fill="#333333" width="5.569" height="5.565"/>
	<rect x="152.531" y="106.265" fill="#333333" width="5.564" height="5.565"/>
	<rect x="122.714" y="61.85" fill="#333333" width="5.569" height="5.564"/>
	<rect x="156.499" y="217.762" fill="#333333" width="5.57" height="5.568"/>
	<rect x="157.498" y="188.448" fill="#333333" width="5.569" height="5.567"/>
	<rect x="157.587" y="195.898" fill="#333333" width="5.569" height="5.568"/>
	<rect x="157.104" y="210.535" fill="#333333" width="5.569" height="5.564"/>
	<rect x="157.458" y="203.252" fill="#333333" width="5.57" height="5.564"/>
	<rect x="157.204" y="180.88" fill="#333333" width="5.566" height="5.567"/>
	<rect x="172.961" y="188.68" fill="#333333" width="5.558" height="5.564"/>
	<rect x="152.327" y="140.34" fill="#333333" width="5.569" height="5.567"/>
	<rect x="153.819" y="148.871" fill="#333333" width="5.568" height="5.562"/>
	<rect x="155.98" y="165.268" fill="#333333" width="5.57" height="5.566"/>
	<rect x="156.7" y="173.164" fill="#333333" width="5.57" height="5.566"/>
	<rect x="150.511" y="131.597" fill="#333333" width="5.568" height="5.565"/>
	<rect x="155.026" y="157.178" fill="#333333" width="5.57" height="5.562"/>
	<rect x="145.917" y="62.922" fill="#333333" width="5.562" height="5.567"/>
	<rect x="133.184" y="303.645" fill="#333333" width="5.563" height="5.564"/>
	<rect x="143.48" y="57.572" fill="#333333" width="5.56" height="5.568"/>
	<rect x="141.991" y="56.178" fill="#333333" width="5.56" height="1.612"/>
	<rect x="154.417" y="83.356" fill="#333333" width="5.566" height="5.565"/>
	<rect x="151.536" y="75.898" fill="#333333" width="5.561" height="5.567"/>
	<rect x="148.658" y="69.054" fill="#333333" width="5.56" height="5.562"/>
	<rect x="128.807" y="310.785" fill="#333333" width="5.563" height="5.568"/>
	<rect x="124.638" y="317.934" fill="#333333" width="5.561" height="5.564"/>
	<rect x="115.759" y="339.387" fill="#333333" width="5.562" height="5.57"/>
	<rect x="117.86" y="332.232" fill="#333333" width="5.563" height="5.564"/>
	<rect x="120.899" y="325.08" fill="#333333" width="5.562" height="5.564"/>
	<rect x="157.196" y="91.288" fill="#333333" width="5.564" height="5.565"/>
	<rect x="171.095" y="158.087" fill="#333333" width="5.564" height="5.564"/>
	<rect x="171.804" y="165.942" fill="#333333" width="5.565" height="5.565"/>
	<rect x="170.195" y="150.07" fill="#333333" width="5.56" height="5.565"/>
	<rect x="172.347" y="173.651" fill="#333333" width="5.564" height="5.566"/>
	<rect x="172.731" y="181.221" fill="#333333" width="5.561" height="5.567"/>
	<rect x="167.739" y="133.56" fill="#333333" width="5.561" height="5.566"/>
	<rect x="164.286" y="116.565" fill="#333333" width="5.564" height="5.566"/>
	<rect x="162.169" y="108.017" fill="#333333" width="5.562" height="5.565"/>
	<rect x="166.144" y="125.1" fill="#333333" width="5.562" height="5.568"/>
	<rect x="159.8" y="99.553" fill="#333333" width="5.562" height="5.562"/>
	<rect x="169.081" y="141.89" fill="#333333" width="5.564" height="5.566"/>
	<rect x="164.914" y="210.559" fill="#333333" width="5.563" height="5.566"/>
	<rect x="164.97" y="181.053" fill="#333333" width="5.562" height="5.567"/>
	<rect x="165.232" y="188.566" fill="#333333" width="5.562" height="5.566"/>
	<rect x="164.525" y="173.408" fill="#333333" width="5.563" height="5.566"/>
	<rect x="165.319" y="195.973" fill="#333333" width="5.559" height="5.567"/>
	<rect x="163.896" y="165.607" fill="#333333" width="5.562" height="5.564"/>
	<rect x="165.214" y="203.301" fill="#333333" width="5.563" height="5.562"/>
	<rect x="163.062" y="157.632" fill="#333333" width="5.564" height="5.564"/>
	<rect x="155.055" y="115.095" fill="#333333" width="5.562" height="5.569"/>
	<rect x="159.13" y="132.583" fill="#333333" width="5.562" height="5.567"/>
	<rect x="157.25" y="123.894" fill="#333333" width="5.564" height="5.565"/>
	<rect x="160.703" y="141.117" fill="#333333" width="5.565" height="5.566"/>
	<rect x="162.007" y="149.471" fill="#333333" width="5.561" height="5.565"/>
	<rect x="145.712" y="282.211" fill="#333333" width="5.563" height="5.564"/>
	<rect x="164.401" y="217.777" fill="#333333" width="5.562" height="5.564"/>
	<rect x="149.304" y="275.062" fill="#333333" width="5.563" height="5.562"/>
	<rect x="137.558" y="296.5" fill="#333333" width="5.562" height="5.564"/>
	<rect x="155.3" y="260.764" fill="#333333" width="5.562" height="5.566"/>
	<rect x="141.771" y="289.355" fill="#333333" width="5.563" height="5.566"/>
	<rect x="152.505" y="267.914" fill="#333333" width="5.562" height="5.561"/>
	<rect x="162.64" y="232.131" fill="#333333" width="5.56" height="5.562"/>
	<rect x="163.652" y="224.959" fill="#333333" width="5.562" height="5.566"/>
	<rect x="157.686" y="253.607" fill="#333333" width="5.564" height="5.566"/>
	<rect x="161.326" y="239.291" fill="#333333" width="5.562" height="5.566"/>
	<rect x="159.688" y="246.455" fill="#333333" width="5.562" height="5.562"/>
</g>
<text transform="matrix(1 0 0 1 350.8232 303.8086)" fill="#333333" font-family="'GiddyupStd'" font-size="373.9539">oostB Moodle</text>
</svg>
